#!OML:ASF X:\für Bonn\!DataBase\2005_08_12_Daniel\c3d\Daniel.ASF
:FULLY-SPECIFIED
:DEGREES
31
root 0.846143 17.6065 -17.2936 350.231 5.99212 -4.96757
lowerback 18.2488 -1.10954 9.11982
upperback 8.27689 0.0463409 -0.752018
thorax -1.23167 0.282442 -5.98688
lowerneck 9.4305 -0.627621 -1.69079
upperneck 30.8611 -1.22504 2.17378
head 8.13885 -0.547972 0.999429
rclavicle -6.4605e-015 1.82882e-014
rhumerus 164.673 -161.565 -260.902
rradius 16.9324
rwrist 27.8289
rhand -17.7365 15.6299
rfingers 7.12502
rthumb 8.52466 -14.1781
lclavicle -6.4605e-015 1.82882e-014
lhumerus -27.3378 20.3562 83.3723
lradius 33.673
lwrist -14.01
lhand -9.52341 -7.56369
lfingers 7.12502
lthumb 16.4425 21.7595
rfemur 5.42636 6.04738 25.311
rtibia 22.1961
rfoot -17.3465 -4.01913
rtoes -9.55022
lfemur -16.0333 -16.0289 -12.7987
ltibia 34.8083
lfoot -12.0401 1.77539
ltoes -13.3515
32
root 0.885042 17.597 -17.2017 350.115 5.71652 -4.91666
lowerback 18.054 -1.05401 8.8556
upperback 8.3571 0.0506017 -0.791469
thorax -1.04928 0.289261 -5.8768
lowerneck 9.62255 -0.585538 -1.53184
upperneck 30.9528 -1.1342 2.01305
head 8.13786 -0.503554 0.920819
rclavicle 1.33186e-014 1.19271e-015
rhumerus 165.137 -161.489 -261.255
rradius 16.8636
rwrist 27.9182
rhand -17.9578 15.5956
rfingers 7.12502
rthumb 8.31108 -14.2209
lclavicle 1.33186e-014 1.19271e-015
lhumerus -27.1588 20.3447 83.4437
lradius 33.2933
lwrist -14.0555
lhand -9.47847 -7.44093
lfingers 7.12502
lthumb 16.4858 21.8787
rfemur 5.61798 5.72581 25.0566
rtibia 22.6224
rfoot -17.4686 -3.31193
rtoes -9.56487
lfemur -15.6837 -15.8282 -13.0498
ltibia 35.1423
lfoot -11.9712 1.86625
ltoes -14.092
33
root 0.924822 17.5871 -17.112 349.963 5.41181 -4.8501
lowerback 17.9254 -1.00574 8.55056
upperback 8.43389 0.0472975 -0.813916
thorax -0.907219 0.288268 -5.72439
lowerneck 9.80263 -0.525633 -1.42429
upperneck 31.0421 -1.01929 1.84811
head 8.13814 -0.45375 0.850349
rclavicle 9.93923e-017 7.95139e-015
rhumerus 165.586 -161.578 -261.611
rradius 16.826
rwrist 27.8435
rhand -18.1738 15.4945
rfingers 7.12502
rthumb 8.10261 -14.3302
lclavicle 9.93923e-017 7.95139e-015
lhumerus -27.0399 20.4969 83.498
lradius 32.9063
lwrist -14.2925
lhand -9.38211 -7.26359
lfingers 7.12502
lthumb 16.5786 22.0483
rfemur 5.77383 5.36213 24.7601
rtibia 23.1397
rfoot -17.5605 -2.51545
rtoes -9.84288
lfemur -15.2796 -15.6489 -13.3256
ltibia 35.4671
lfoot -12.0658 2.01419
ltoes -15.0893
34
root 0.963969 17.576 -17.0249 349.805 5.10321 -4.7598
lowerback 17.8051 -0.950447 8.23491
upperback 8.53883 0.0519815 -0.857131
thorax -0.737671 0.293021 -5.58974
lowerneck 9.87343 -0.48981 -1.25008
upperneck 31.154 -0.929749 1.65931
head 8.16447 -0.409898 0.758814
rclavicle 2.18663e-015 2.78299e-015
rhumerus 166.059 -161.822 -262.009
rradius 16.7863
rwrist 27.5697
rhand -18.4567 15.4428
rfingers 7.12502
rthumb 7.82958 -14.3922
lclavicle 2.18663e-015 2.78299e-015
lhumerus -26.8241 20.6256 83.5477
lradius 32.4664
lwrist -14.5284
lhand -9.38418 -6.99237
lfingers 7.12502
lthumb 16.5766 22.3196
rfemur 5.86495 4.98711 24.4161
rtibia 23.7674
rfoot -17.621 -1.66791
rtoes -9.86048
lfemur -14.8723 -15.3973 -13.6205
ltibia 35.786
lfoot -12.1842 2.12561
ltoes -15.8217
35
root 0.998175 17.5646 -16.9393 349.645 4.79215 -4.67567
lowerback 17.7383 -0.892362 7.8678
upperback 8.59867 0.0603438 -0.879936
thorax -0.645472 0.29216 -5.40525
lowerneck 9.97599 -0.442299 -1.08697
upperneck 31.3215 -0.821301 1.45687
head 8.20608 -0.359396 0.66538
rclavicle -1.23246e-014 -4.37326e-015
rhumerus 166.434 -161.887 -262.36
rradius 16.7621
rwrist 27.5452
rhand -18.7419 15.4575
rfingers 7.12502
rthumb 7.55428 -14.3876
lclavicle -1.23246e-014 -4.37326e-015
lhumerus -26.7106 20.9439 83.5341
lradius 32.016
lwrist -14.9428
lhand -9.37209 -6.7595
lfingers 7.12502
lthumb 16.5882 22.5515
rfemur 5.88488 4.69281 24.1136
rtibia 24.4983
rfoot -17.687 -0.895721
rtoes -9.92111
lfemur -14.4824 -15.0971 -13.8661
ltibia 36.0894
lfoot -12.3375 2.16324
ltoes -16.0183
36
root 1.03411 17.5521 -16.8562 349.492 4.44137 -4.55858
lowerback 17.6819 -0.821473 7.48674
upperback 8.67045 0.0842509 -0.912277
thorax -0.543636 0.299093 -5.22587
lowerneck 10.0267 -0.394159 -0.935525
upperneck 31.4628 -0.714579 1.26644
head 8.247 -0.309993 0.577588
rclavicle -2.38542e-015 -3.97569e-015
rhumerus 166.818 -161.814 -262.695
rradius 16.7037
rwrist 27.6859
rhand -19.1109 15.5604
rfingers 7.12502
rthumb 7.19813 -14.2972
lclavicle -2.38542e-015 -3.97569e-015
lhumerus -26.5755 21.2908 83.5041
lradius 31.5532
lwrist -15.4126
lhand -9.40034 -6.51452
lfingers 7.12502
lthumb 16.561 22.7988
rfemur 5.8086 4.35895 23.736
rtibia 25.3534
rfoot -17.7167 -0.0507706
rtoes -10.2053
lfemur -14.1036 -14.7277 -14.1377
ltibia 36.3927
lfoot -12.5313 2.18351
ltoes -15.7516
37
root 1.07143 17.5406 -16.778 349.317 4.01211 -4.45152
lowerback 17.6845 -0.737156 7.16332
upperback 8.75358 0.138862 -0.967305
thorax -0.454205 0.322949 -5.1096
lowerneck 10.0069 -0.342866 -0.787071
upperneck 31.6404 -0.611088 1.10963
head 8.31287 -0.259784 0.501565
rclavicle -5.26779e-015 -1.74931e-014
rhumerus 167.237 -161.389 -263.058
rradius 16.5979
rwrist 28.1167
rhand -19.5037 15.8419
rfingers 7.12502
rthumb 6.81892 -14.0283
lclavicle -5.26779e-015 -1.74931e-014
lhumerus -26.408 21.6091 83.4349
lradius 31.0711
lwrist -15.9345
lhand -9.45992 -6.27789
lfingers 7.12502
lthumb 16.5037 23.0402
rfemur 5.65588 4.08171 23.3559
rtibia 26.3256
rfoot -17.6982 0.805868
rtoes -10.3375
lfemur -13.6971 -14.2245 -14.3837
ltibia 36.6935
lfoot -12.7597 2.13799
ltoes -15.0543
38
root 1.10968 17.5284 -16.7056 349.16 3.55171 -4.31633
lowerback 17.7664 -0.645838 6.82023
upperback 8.78429 0.2071 -1.01813
thorax -0.461417 0.347348 -4.98116
lowerneck 10.0573 -0.286889 -0.69759
upperneck 31.7964 -0.504016 0.960553
head 8.36038 -0.214046 0.438564
rclavicle 3.37934e-015 -1.35174e-014
rhumerus 167.602 -160.849 -263.387
rradius 16.4532
rwrist 28.7409
rhand -19.9083 16.1526
rfingers 7.12502
rthumb 6.42835 -13.7299
lclavicle 3.37934e-015 -1.35174e-014
lhumerus -26.3159 21.9996 83.3184
lradius 30.5831
lwrist -16.5288
lhand -9.44948 -6.08404
lfingers 7.12502
lthumb 16.5137 23.2332
rfemur 5.39082 3.79066 22.9232
rtibia 27.4099
rfoot -17.6458 1.65054
rtoes -10.6286
lfemur -13.3379 -13.6427 -14.6386
ltibia 37.0259
lfoot -13.0553 2.03885
ltoes -14.2636
